<svg width="41" height="40" viewBox="0 0 41 40" fill="none" xmlns="http://www.w3.org/2000/svg">
<path d="M20.9199 35C29.2042 35 35.9199 28.2843 35.9199 20C35.9199 11.7157 29.2042 5 20.9199 5C12.6357 5 5.91992 11.7157 5.91992 20C5.91992 28.2843 12.6357 35 20.9199 35Z" fill="#FFE2CD"/>
<path d="M23.4551 23.8417C23.4551 22.4948 24.5221 21.39 25.8681 21.3432L29.0059 21.2339C29.2961 21.2238 29.5856 21.2643 29.8616 21.3535L31.4529 21.8677C32.4849 22.2012 33.1841 23.162 33.1841 24.2466V27.8343C33.1841 28.9983 32.3809 30.0083 31.2466 30.2703L29.5464 30.6631C29.3266 30.7138 29.1009 30.7346 28.8754 30.7248L25.8467 30.5933C24.5094 30.5353 23.4551 29.4343 23.4551 28.0956V23.8417Z" fill="white"/>
<path d="M27.2988 30.5315L29.7781 30.6357C32.1531 30.4275 33.1846 29.2377 33.1846 27.911V26.2295C32.8736 26.9327 31.9663 27.127 31.3948 26.6125L31.3528 26.5747L27.2988 30.5315Z" fill="#D9D9D9"/>
<path d="M21.6543 23.8437C21.6543 22.4963 22.7221 21.3913 24.0687 21.3452L28.7978 21.1831C30.2111 21.1347 31.3833 22.2674 31.3833 23.6817V28.2366C31.3833 29.6508 30.2111 30.7836 28.7978 30.7351L24.0687 30.5731C22.7221 30.5268 21.6543 29.4218 21.6543 28.0746V23.8437Z" fill="#FC790D"/>
<path fill-rule="evenodd" clip-rule="evenodd" d="M21.6543 26.7021V28.0744C21.6543 29.4219 22.7221 30.5269 24.0687 30.5729L28.7978 30.7349C30.2111 30.7834 31.3833 29.6506 31.3833 28.2364V26.7021C31.3833 28.0829 30.2641 29.2021 28.8833 29.2021H24.1543C22.7736 29.2021 21.6543 28.0829 21.6543 26.7021Z" fill="#4F3F05"/>
<path d="M10.4551 23.8417C10.4551 22.4948 11.5221 21.39 12.8681 21.3432L16.006 21.2339C16.296 21.2238 16.5856 21.2643 16.8617 21.3535L18.4529 21.8677C19.4849 22.2012 20.1841 23.162 20.1841 24.2466V27.8343C20.1841 28.9983 19.3808 30.0083 18.2467 30.2703L16.5465 30.6631C16.3266 30.7138 16.1009 30.7346 15.8755 30.7248L12.8467 30.5933C11.5094 30.5353 10.4551 29.4343 10.4551 28.0956V23.8417Z" fill="white"/>
<path d="M14.2988 30.5315L16.778 30.6357C19.153 30.4275 20.1845 29.2377 20.1845 27.911V26.2295C19.8735 26.9327 18.9663 27.127 18.3947 26.6125L18.3528 26.5747L14.2988 30.5315Z" fill="#D9D9D9"/>
<path d="M8.6543 23.8437C8.6543 22.4963 9.7221 21.3913 11.0687 21.3452L15.7977 21.1831C17.2112 21.1347 18.3833 22.2674 18.3833 23.6817V28.2366C18.3833 29.6508 17.2112 30.7836 15.7977 30.7351L11.0687 30.5731C9.7221 30.5268 8.6543 29.4218 8.6543 28.0746V23.8437Z" fill="#2B9DF3"/>
<path fill-rule="evenodd" clip-rule="evenodd" d="M8.6543 26.7021V28.0744C8.6543 29.4219 9.7221 30.5269 11.0687 30.5729L15.7977 30.7349C17.2112 30.7834 18.3833 29.6506 18.3833 28.2364V26.7021C18.3833 28.0829 17.264 29.2021 15.8833 29.2021H11.1543C9.77357 29.2021 8.6543 28.0829 8.6543 26.7021Z" fill="#002C5C"/>
<path d="M23.4551 11.9256C23.4551 10.5788 24.5221 9.47402 25.8681 9.42717L29.0059 9.31792C29.2961 9.30782 29.5856 9.3483 29.8616 9.43752L31.4529 9.9517C32.4849 10.2852 33.1841 11.246 33.1841 12.3306V15.9184C33.1841 17.0824 32.3809 18.0924 31.2466 18.3543L29.5464 18.747C29.3266 18.7978 29.1009 18.8185 28.8754 18.8087L25.8467 18.6773C24.5094 18.6193 23.4551 17.5182 23.4551 16.1797V11.9256Z" fill="white"/>
<path d="M27.2988 18.6146L29.7781 18.7188C32.1531 18.5104 33.1846 17.3208 33.1846 15.9941V14.3125C32.8736 15.0158 31.9663 15.21 31.3948 14.6956L31.3528 14.6578L27.2988 18.6146Z" fill="#D9D9D9"/>
<path d="M21.6543 11.9267C21.6543 10.5793 22.7221 9.4743 24.0687 9.42817L28.7978 9.26615C30.2111 9.21772 31.3833 10.3504 31.3833 11.7647V16.3195C31.3833 17.7337 30.2111 18.8664 28.7978 18.818L24.0687 18.656C22.7221 18.6098 21.6543 17.5048 21.6543 16.1574V11.9267Z" fill="#2B9DF3"/>
<path fill-rule="evenodd" clip-rule="evenodd" d="M21.6543 14.7852V16.1575C21.6543 17.5049 22.7221 18.6099 24.0687 18.656L28.7978 18.8181C30.2111 18.8665 31.3833 17.7338 31.3833 16.3195V14.7852C31.3833 16.1659 30.2641 17.2852 28.8833 17.2852H24.1543C22.7736 17.2852 21.6543 16.1659 21.6543 14.7852Z" fill="#002C5C"/>
<path d="M10.4551 11.9256C10.4551 10.5788 11.5221 9.47402 12.8681 9.42717L16.006 9.31792C16.296 9.30782 16.5856 9.3483 16.8617 9.43752L18.4529 9.9517C19.4849 10.2852 20.1841 11.246 20.1841 12.3306V15.9184C20.1841 17.0824 19.3808 18.0924 18.2467 18.3543L16.5465 18.747C16.3266 18.7978 16.1009 18.8185 15.8755 18.8087L12.8467 18.6773C11.5094 18.6193 10.4551 17.5182 10.4551 16.1797V11.9256Z" fill="white"/>
<path d="M14.2988 18.6146L16.778 18.7188C19.153 18.5104 20.1845 17.3208 20.1845 15.9941V14.3125C19.8735 15.0158 18.9663 15.21 18.3947 14.6956L18.3528 14.6578L14.2988 18.6146Z" fill="#D9D9D9"/>
<path d="M8.6543 11.9267C8.6543 10.5793 9.7221 9.4743 11.0687 9.42817L15.7977 9.26615C17.2112 9.21772 18.3833 10.3504 18.3833 11.7647V16.3195C18.3833 17.7337 17.2112 18.8664 15.7977 18.818L11.0687 18.656C9.7221 18.6098 8.6543 17.5048 8.6543 16.1574V11.9267Z" fill="#2B9DF3"/>
<path fill-rule="evenodd" clip-rule="evenodd" d="M8.6543 14.7852V16.1575C8.6543 17.5049 9.7221 18.6099 11.0687 18.656L15.7977 18.8181C17.2112 18.8665 18.3833 17.7338 18.3833 16.3195V14.7852C18.3833 16.1659 17.264 17.2852 15.8833 17.2852H11.1543C9.77357 17.2852 8.6543 16.1659 8.6543 14.7852Z" fill="#002C5C"/>
</svg>
