<svg width="24" height="25" viewBox="0 0 24 25" fill="none" xmlns="http://www.w3.org/2000/svg">
<g id="Live">
<path id="Vector" d="M24 12.418C24 5.79055 18.6274 0.417969 12 0.417969C5.37258 0.417969 0 5.79055 0 12.418C0 19.0454 5.37258 24.418 12 24.418C18.6274 24.418 24 19.0454 24 12.418Z" fill="#FFEAE7"/>
<g id="Clip path group">
<mask id="mask0_7250_97304" style="mask-type:luminance" maskUnits="userSpaceOnUse" x="3" y="6" width="18" height="13">
<g id="clip2_501_2575">
<path id="Vector_2" d="M20.3996 6.41797H3.59961V18.418H20.3996V6.41797Z" fill="white"/>
</g>
</mask>
<g mask="url(#mask0_7250_97304)">
<g id="Group">
<path id="Vector_3" d="M12.0017 17.2239C14.6534 17.2239 16.803 15.0742 16.803 12.4225C16.803 9.77075 14.6534 7.62109 12.0017 7.62109C9.35004 7.62109 7.20044 9.77075 7.20044 12.4225C7.20044 15.0742 9.35004 17.2239 12.0017 17.2239Z" fill="#F8B87E"/>
<path id="Vector_4" d="M6.3767 18.418C5.9967 18.2573 5.7637 17.9295 5.5147 17.6317C4.1527 16.0062 3.50268 14.1254 3.61068 12.0105C3.71968 9.89558 4.56068 8.09368 6.07668 6.61068C6.33668 6.35628 6.7077 6.35568 6.9497 6.59748C7.1927 6.83958 7.19669 7.21128 6.93569 7.46778C6.12469 8.26528 5.50168 9.18588 5.17168 10.2763C4.37968 12.9012 4.92868 15.226 6.80068 17.232C7.00568 17.4518 7.1877 17.6593 7.0877 17.987C7.0227 18.2008 6.85469 18.3136 6.67669 18.418H6.3767Z" fill="#C55226"/>
<path id="Vector_5" d="M17.3296 18.4179C17.2626 18.3765 17.1906 18.3402 17.1276 18.2929C16.8306 18.0704 16.8066 17.6533 17.0886 17.3749C17.5536 16.9158 17.9566 16.4104 18.2866 15.8459C19.8226 13.2169 19.3917 9.79578 17.2497 7.63348C17.1877 7.57138 17.1227 7.51168 17.0677 7.44458C16.8527 7.18558 16.8737 6.83958 17.1127 6.61828C17.3517 6.39678 17.6997 6.39959 17.9407 6.63379C19.2027 7.86049 20.0127 9.33798 20.2847 11.0748C20.7147 13.8132 19.9327 16.1802 17.9887 18.1594C17.8867 18.2629 17.7507 18.3325 17.6297 18.4179H17.3296Z" fill="#C55226"/>
<path id="Vector_6" d="M16.8026 12.4954C16.7716 13.9523 16.2356 15.2768 15.1506 16.3719C14.8476 16.6776 14.4846 16.7013 14.2256 16.4392C13.9756 16.1869 14.0036 15.8229 14.2956 15.5284C15.1756 14.6413 15.6216 13.5711 15.5956 12.3245C15.5716 11.1712 15.1356 10.1796 14.3326 9.34742C14.2236 9.23482 14.1196 9.09442 14.0746 8.94822C13.9966 8.68812 14.1346 8.42542 14.3666 8.29942C14.6076 8.16872 14.8766 8.20742 15.0896 8.41282C15.7106 9.01202 16.1696 9.71752 16.4656 10.5285C16.6876 11.1382 16.7926 11.769 16.8026 12.4954Z" fill="#C55226"/>
<path id="Vector_7" d="M7.19971 12.3014C7.22771 10.9054 7.75571 9.59082 8.82471 8.50042C9.11571 8.20312 9.4737 8.17722 9.7337 8.42682C9.9877 8.67142 9.96368 9.04472 9.67868 9.33802C8.82368 10.2173 8.38768 11.2712 8.40768 12.4964C8.42668 13.6715 8.86468 14.6813 9.69168 15.5179C9.86968 15.698 9.9857 15.8926 9.9267 16.1515C9.8197 16.6181 9.2667 16.771 8.9097 16.4293C8.2877 15.8319 7.83071 15.1253 7.53571 14.3142C7.31371 13.7043 7.20671 13.0747 7.19971 12.3014Z" fill="#C55226"/>
<path id="Vector_8" d="M10.8038 12.4058C10.8108 11.7458 11.3598 11.214 12.0248 11.2238C12.6778 11.2334 13.2078 11.775 13.2038 12.4294C13.1998 13.0915 12.6558 13.6258 11.9918 13.6214C11.3318 13.6171 10.7968 13.0701 10.8038 12.4058Z" fill="#C55226"/>
</g>
</g>
</g>
</g>
</svg>
