<svg width="24" height="25" viewBox="0 0 24 25" fill="none" xmlns="http://www.w3.org/2000/svg">
<g id="Track">
<g id="Group 39">
<path id="Vector" d="M0 12.418C0 5.79057 5.373 0.417969 12 0.417969C18.627 0.417969 24 5.79057 24 12.418C24 19.045 18.627 24.418 12 24.418C5.373 24.418 0 19.045 0 12.418Z" fill="#FFEAE7"/>
<g id="Group 37">
<path id="Vector_2" d="M11.8571 15.1321C13.435 15.1321 14.7141 13.8529 14.7141 12.275C14.7141 10.6971 13.435 9.41797 11.8571 9.41797C10.2791 9.41797 9 10.6971 9 12.275C9 13.8529 10.2791 15.1321 11.8571 15.1321Z" fill="#F8B87E"/>
<path id="Vector_3" d="M11.891 20.418C11.558 20.287 11.418 20.044 11.449 19.69C11.461 19.549 11.442 19.404 11.453 19.262C11.464 19.127 11.418 19.077 11.28 19.062C10.123 18.943 9.064 18.55 8.124 17.87C6.495 16.691 5.57601 15.091 5.34101 13.1C5.33801 13.07 5.33401 13.041 5.32801 12.989C5.09801 12.989 4.86699 12.99 4.63599 12.989C4.25499 12.987 3.999 12.756 4 12.416C4.001 12.0739 4.254 11.8479 4.638 11.8465C4.864 11.8456 5.09001 11.8463 5.32801 11.8463C5.49301 10.2229 6.12399 8.82417 7.27899 7.67657C8.42799 6.53357 9.82799 5.90937 11.451 5.74537C11.451 5.49787 11.449 5.26677 11.451 5.03567C11.455 4.66737 11.689 4.41657 12.024 4.41797C12.354 4.41937 12.59 4.67407 12.596 5.04137C12.6 5.26137 12.599 5.48157 12.601 5.70167C12.601 5.71257 12.61 5.72347 12.605 5.71117C16.124 6.28967 18.155 8.31667 18.745 11.8471C18.953 11.8471 19.201 11.8415 19.449 11.8487C19.696 11.8558 19.913 12.0307 19.978 12.2597C20.042 12.49 19.965 12.746 19.759 12.873C19.654 12.938 19.518 12.974 19.393 12.984C19.169 13.002 18.942 12.989 18.744 12.989C18.163 16.513 16.128 18.545 12.597 19.125C12.597 19.287 12.585 19.471 12.599 19.654C12.625 20.004 12.505 20.266 12.177 20.418H11.891ZM6.49201 12.989C6.74501 15.819 9.16601 17.783 11.428 17.913C11.434 17.903 11.445 17.893 11.445 17.883C11.448 17.674 11.447 17.466 11.452 17.258C11.46 16.925 11.689 16.682 12.001 16.67C12.317 16.659 12.574 16.901 12.594 17.236C12.603 17.385 12.596 17.534 12.597 17.683C12.597 17.762 12.597 17.842 12.597 17.924C15.225 17.701 17.356 15.489 17.537 12.996C17.485 12.994 17.432 12.99 17.379 12.989C17.206 12.989 17.033 12.99 16.86 12.989C16.497 12.985 16.242 12.745 16.245 12.4119C16.248 12.0834 16.498 11.85 16.853 11.8467C17.083 11.8446 17.314 11.8463 17.546 11.8463C17.29 9.05587 14.939 7.07808 12.597 6.91688C12.597 7.13028 12.598 7.34267 12.596 7.55507C12.595 7.78647 12.505 7.97277 12.3 8.08997C11.932 8.30067 11.474 8.04857 11.455 7.62057C11.444 7.38657 11.453 7.15167 11.453 6.91557C8.88401 7.10207 6.67501 9.30807 6.50101 11.8463H6.82199C7.47899 11.8463 7.74801 12.0103 7.75101 12.4134C7.75401 12.819 7.48199 12.989 6.82999 12.989H6.49201Z" fill="#C55227"/>
</g>
</g>
</g>
</svg>
